<?xml version="1.0"?><svg xmlns="http://www.w3.org/2000/svg" xmlns:xlink="http://www.w3.org/1999/xlink" viewBox="67.66 168.19 61.63 53.63" preserveAspectRatio="xMidYMid" width="100%" height="100%"><clipPath id="68"><rect x="0.5" y="0.5" width="522.2" height="768.8" /></clipPath><g id="drawing"><rect x="67.66" y="168.19" width="100%" height="100%" fill="rgb(255, 255, 255)" /><g id="page" clip-path="url(#68)"><g id="Oval"><circle cx="98.47" cy="195" r="17.2940689845379" stroke="rgb(0, 0, 0)" stroke-width="1.42" fill="rgb(255, 255, 255)" /></g><g id="Solid"><path d="M82.85 221.57 L82.85 221.57 L83.27 220.86 L83.69 220.15 L112.87 220.39 L113.27 221.1 L113.67 221.81 Z" stroke="rgb(0, 0, 0)" stroke-width="0" fill-rule="evenodd" stroke-linejoin="miter" fill="rgb(0, 0, 0)" shape-rendering="geometricPrecision" /></g><g id="Solid"><path d="M113.67 221.81 L113.67 221.81 L113.27 221.1 L112.87 220.39 L127.65 195.23 L128.47 195.24 L129.29 195.25 Z" stroke="rgb(0, 0, 0)" stroke-width="0" fill-rule="evenodd" stroke-linejoin="miter" fill="rgb(0, 0, 0)" shape-rendering="geometricPrecision" /></g><g id="Solid"><path d="M129.29 195.25 L129.29 195.25 L128.47 195.24 L127.65 195.23 L113.26 169.85 L113.68 169.14 L114.1 168.43 Z" stroke="rgb(0, 0, 0)" stroke-width="0" fill-rule="evenodd" stroke-linejoin="miter" fill="rgb(0, 0, 0)" shape-rendering="geometricPrecision" /></g><g id="Solid"><path d="M114.1 168.43 L114.1 168.43 L113.68 169.14 L113.26 169.85 L84.08 169.61 L83.68 168.9 L83.28 168.19 Z" stroke="rgb(0, 0, 0)" stroke-width="0" fill-rule="evenodd" stroke-linejoin="miter" fill="rgb(0, 0, 0)" shape-rendering="geometricPrecision" /></g><g id="Solid"><path d="M83.28 168.19 L83.28 168.19 L83.68 168.9 L84.08 169.61 L69.3 194.77 L68.48 194.76 L67.66 194.75 Z" stroke="rgb(0, 0, 0)" stroke-width="0" fill-rule="evenodd" stroke-linejoin="miter" fill="rgb(0, 0, 0)" shape-rendering="geometricPrecision" /></g><g id="Solid"><path d="M67.66 194.75 L67.66 194.75 L68.48 194.76 L69.3 194.77 L83.69 220.15 L83.27 220.86 L82.85 221.57 Z" stroke="rgb(0, 0, 0)" stroke-width="0" fill-rule="evenodd" stroke-linejoin="miter" fill="rgb(0, 0, 0)" shape-rendering="geometricPrecision" /></g></g></g></svg>